<svg width="93" height="33" viewBox="0 0 93 33" fill="none" xmlns="http://www.w3.org/2000/svg">
<g id="Frame">
<path id="Vector" d="M1.92527 1.88092L19.6313 0.573234C21.8062 0.386573 22.3651 0.512436 23.7325 1.50654L29.3846 5.48827C30.3169 6.17305 30.6272 6.35971 30.6272 7.10528V28.9424C30.6272 30.3109 30.1302 31.1205 28.3905 31.2442L7.82907 32.489C6.52352 32.5508 5.90167 32.3642 5.21796 31.4927L1.05596 26.0806C0.309323 25.0844 0 24.3388 0 23.4674V4.05685C0 2.93795 0.49705 2.00465 1.92527 1.88092Z" fill="white"/>
<path id="Vector_2" fill-rule="evenodd" clip-rule="evenodd" d="M19.6313 0.573234L1.92527 1.88092C0.49705 2.00465 0 2.93795 0 4.05685V23.4674C0 24.3388 0.309323 25.0844 1.05596 26.0806L5.21796 31.4927C5.90167 32.3642 6.52352 32.5508 7.82907 32.489L28.3905 31.2442C30.1291 31.1205 30.6272 30.3109 30.6272 28.9424V7.10528C30.6272 6.39811 30.3478 6.19438 29.5254 5.59067C29.4781 5.55658 29.4308 5.52245 29.3836 5.48827L23.7325 1.50654C22.3651 0.512436 21.8062 0.386573 19.6313 0.573234ZM8.29412 6.74796C6.61525 6.86102 6.23446 6.88662 5.28089 6.11118L2.85644 4.18271C2.61005 3.93312 2.73378 3.62167 3.35455 3.5598L20.3759 2.31611C21.8051 2.19131 22.5496 2.68943 23.1086 3.12462L26.0279 5.23974C26.1527 5.30268 26.4631 5.67493 26.0898 5.67493L8.51172 6.73303L8.29412 6.74796ZM6.33686 28.7558V10.2177C6.33686 9.40814 6.58538 9.03482 7.32989 8.97189L27.5191 7.79006C28.2039 7.7282 28.5132 8.16338 28.5132 8.97189V27.3862C28.5132 28.1958 28.3884 28.8806 27.2706 28.9424L7.95067 30.0624C6.83284 30.1242 6.33686 29.752 6.33686 28.7558ZM25.4082 11.2118C25.5319 11.7718 25.4082 12.3318 24.8482 12.3958L23.9171 12.5803V26.2673C23.1086 26.7025 22.3641 26.951 21.7422 26.951C20.7481 26.951 20.4996 26.6396 19.7551 25.7073L13.6657 16.1268V25.3959L15.592 25.8321C15.592 25.8321 15.592 26.9521 14.0379 26.9521L9.75327 27.2006C9.62848 26.951 9.75327 26.3292 10.1874 26.2054L11.3063 25.8951V13.6395L9.75327 13.5136C9.62848 12.9536 9.93887 12.1451 10.8092 12.0822L15.4064 11.7729L21.7422 21.4771V12.8918L20.1273 12.7062C20.0025 12.0203 20.4996 11.5222 21.1204 11.4614L25.4082 11.2118Z" fill="black"/>
<path id="Vector_3" d="M44.1948 23.1675V14.7304H44.3409L50.425 23.1675H52.3406V10.7689H50.2106V19.1975H50.0645L43.9804 10.7689H42.0573V23.1664H44.1958L44.1948 23.1675ZM58.3607 23.3573C61.1713 23.3573 62.8811 21.5184 62.8811 18.4679C62.8811 15.4259 61.1627 13.5784 58.3607 13.5784C55.5683 13.5784 53.8414 15.4344 53.8414 18.4679C53.8414 21.5184 55.5427 23.3573 58.3607 23.3573ZM58.3607 21.5696C56.8749 21.5696 56.0248 20.4358 56.0248 18.4679C56.0248 16.5085 56.8749 15.3661 58.3607 15.3661C59.8391 15.3661 60.6892 16.5085 60.6892 18.4679C60.6892 20.4358 59.8476 21.5696 58.3607 21.5696ZM64.8277 11.4655V13.828H63.3419V15.5293H64.8277V20.6587C64.8277 22.4805 65.6874 23.2112 67.8441 23.2112C68.2558 23.2112 68.6516 23.1685 68.9609 23.1077V21.4406C68.7028 21.4662 68.5396 21.4833 68.2388 21.4833C67.346 21.4833 66.9503 21.0715 66.9503 20.1436V15.5293H68.9609V13.828H66.9503V11.4644L64.8277 11.4655ZM70.2376 23.1675H72.3602V13.7672H70.2376V23.1675ZM71.2947 12.2132C71.9987 12.2132 72.5661 11.6446 72.5661 10.9321C72.5661 10.2186 71.9997 9.64258 71.2947 9.64258C70.5992 9.64258 70.0233 10.2186 70.0233 10.9321C70.0233 11.6446 70.5992 12.2121 71.2947 12.2121V12.2132ZM78.183 23.3573C80.9925 23.3573 82.7023 21.5184 82.7023 18.4679C82.7023 15.4259 80.984 13.5784 78.183 13.5784C75.3895 13.5784 73.6626 15.4344 73.6626 18.4679C73.6626 21.5184 75.3639 23.3573 78.183 23.3573ZM78.183 21.5696C76.6961 21.5696 75.8449 20.4358 75.8449 18.4679C75.8449 16.5085 76.6961 15.3661 78.183 15.3661C79.6603 15.3661 80.5114 16.5085 80.5114 18.4679C80.5114 20.4358 79.6688 21.5696 78.183 21.5696ZM83.9705 23.1675H86.1016V17.6946C86.1016 16.3112 86.9016 15.4344 88.172 15.4344C89.4701 15.4344 90.0706 16.1565 90.0706 17.5911V23.1675H92.2028V17.0845C92.2028 14.8413 91.0593 13.5784 88.9634 13.5784C87.5619 13.5784 86.6168 14.2227 86.1699 15.2712H86.0238V13.7672H83.9705V23.1675Z" fill="#121212"/>
</g>
</svg>
